<svg width="600" height="600" viewBox="0 0 600 600" fill="none" xmlns="http://www.w3.org/2000/svg">
<g clip-path="url(#clip0_136_1412)">
<path d="M386.862 581.765C430.33 568.313 470.103 545.003 503.079 513.651C536.056 482.3 561.345 443.755 576.975 401.022C592.605 358.29 598.153 312.524 593.186 267.294C588.219 222.065 572.872 178.594 548.341 140.271C523.811 101.949 490.759 69.8105 451.765 46.3625C412.77 22.9145 368.887 8.79072 323.536 5.09242C278.185 1.39413 232.593 8.22132 190.314 25.0416C148.036 41.8619 110.215 68.2207 79.7989 102.062L89.0067 110.338C118.148 77.9145 154.384 52.6604 194.891 36.5449C235.398 20.4295 279.079 13.8884 322.53 17.4317C365.98 20.9751 408.025 34.507 445.385 56.9724C482.745 79.4377 514.412 110.229 537.914 146.946C561.417 183.663 576.121 225.312 580.88 268.646C585.638 311.98 580.323 355.828 565.348 396.77C550.373 437.712 526.144 474.641 494.549 504.679C462.954 534.716 424.848 557.05 383.202 569.938L386.862 581.765Z" fill="url(#paint0_linear_136_1412)"/>
</g>
<defs>
<linearGradient id="paint0_linear_136_1412" x1="506.262" y1="533.447" x2="47.0905" y2="141.525" gradientUnits="userSpaceOnUse">
<stop stop-color="#F4D501"/>
<stop offset="1" stop-color="#1D7D57"/>
</linearGradient>
<clipPath id="clip0_136_1412">
<rect width="600" height="600" fill="white"/>
</clipPath>
</defs>
</svg>
